<svg xmlns="http://www.w3.org/2000/svg" viewBox="0 0 256 153">
  <path fill="#252F3E" d="M72.392 55.438c0 3.137.34 5.68.933 7.545.68 1.865 1.525 3.899 2.712 6.103.424.68.594 1.358.594 1.951 0 .85-.51 1.698-1.614 2.548l-5.32 3.56c-.763.51-1.525.764-2.203.764-.849 0-1.698-.424-2.548-1.188-1.188-1.273-2.206-2.632-2.97-3.985-.765-1.440-1.53-3.052-2.379-4.918-5.999 7.074-13.543 10.62-22.633 10.62-6.465 0-11.636-1.866-15.451-5.6-3.816-3.73-5.766-8.733-5.766-14.99 0-6.634 2.334-12.02 7.074-16.092 4.74-4.072 11.04-6.107 19.043-6.107 2.631 0 5.347.255 8.157.68 2.81.424 5.706 1.018 8.73 1.698v-5.686c0-5.94-1.26-10.096-3.73-12.56-2.549-2.463-6.88-3.646-13.037-3.646-2.8 0-5.686.34-8.647 1.019-2.962.68-5.838 1.528-8.628 2.548-.763.34-1.44.595-1.95.764a4.17 4.17 0 0 1-1.103.17c-.934 0-1.358-.68-1.358-2.124v-4.156c0-1.103.171-1.951.594-2.463.425-.51 1.189-1.019 2.379-1.528 2.8-1.444 6.16-2.633 10.06-3.567 3.9-1.018 8.03-1.528 12.415-1.528 9.456 0 16.36 2.124 20.857 6.377 4.413 4.252 6.67 10.707 6.67 19.37v25.5h-.085z"/>
  <path fill="#252F3E" d="M35.673 65.887c2.55 0 5.177-.425 7.897-1.274a16.82 16.82 0 0 0 7.074-4.411c1.188-1.273 2.036-2.716 2.376-4.411.424-1.698.679-3.732.679-6.148v-2.971c-2.206-.511-4.582-.934-7.074-1.189a67.089 67.089 0 0 0-7.244-.424c-5.177 0-9.006 1.019-11.556 3.137-2.55 2.121-3.816 5.089-3.816 8.986 0 3.646.933 6.377 2.89 8.244 1.866 1.95 4.582 2.886 8.774 2.886v.425z"/>
  <path fill="#FF9900" d="M183.49 90.532c-44.25 32.695-108.48 50.087-163.795 50.087-77.464 0-147.234-28.68-200.022-76.353-4.157-3.731-.424-8.82 4.579-5.936 57.017 33.205 127.464 53.158 200.278 53.158 49.075 0 103.069-10.197 152.737-31.253 7.414-3.223 13.714 4.918 6.223 10.297z"/>
  <path fill="#FF9900" d="M198.945 72.797c-5.6-7.16-37.006-3.395-51.166-1.698-4.242.509-4.921-3.223-1.019-5.94 25.072-17.607 66.168-12.517 70.97-6.633 4.92 5.94-1.274 47.291-24.777 67.006-3.647 3.052-7.074 1.444-5.52-2.631 5.346-13.374 17.282-43.18 11.512-50.104z"/>
</svg>
