<svg xmlns="http://www.w3.org/2000/svg" viewBox="0 0 256 185">
  <path fill="#2496ED" d="M250.716 70.497c-5.03-3.346-16.61-4.566-25.498-2.893-1.174-8.543-5.983-15.992-14.696-22.694l-5.003-3.33-3.332 5.005c-4.229 6.368-6.711 15.198-5.996 23.868.351 3.2 1.42 8.932 4.576 13.949-3.214 1.742-9.566 4.123-17.944 3.97H.002l-.317 1.83c-1.487 8.739-1.475 36.046 16.12 56.997 13.35 15.88 33.278 23.935 59.272 23.935 56.47 0 98.26-26.005 117.848-73.282 7.695.157 24.26.104 32.77-16.213.217-.324 2.198-4.487 2.828-5.873l.549-1.269-5.356-3z"/>
  <path fill="#2496ED" d="M28.722 59.354h21.276V80.63H28.722zM54.627 59.354h21.276V80.63H54.627zM80.53 59.354h21.277V80.63H80.531zM106.435 59.354h21.276V80.63h-21.276zM54.627 34.448h21.276v21.276H54.627zM80.53 34.448h21.277v21.276H80.531zM106.435 34.448h21.276v21.276h-21.276zM132.34 34.448h21.276v21.276H132.34zM132.34 59.354h21.276V80.63H132.34z"/>
</svg>
