<svg xmlns="http://www.w3.org/2000/svg" viewBox="0 0 320 320">
  <path fill="#10A37F" d="M297.06 130.97c7.26-21.79 4.76-45.66-6.85-65.48-17.46-30.4-52.56-46.04-86.84-38.68C186.79 10.63 165.21.01 142.96 0 97.51-.01 61.01 36.42 60.93 81.87c0 3.14.17 6.27.51 9.38-22.11 4.71-41.23 18.28-52.8 37.48-17.52 30.42-11.98 69.22 13.63 95.5-7.26 21.79-4.76 45.66 6.85 65.48 17.46 30.4 52.56 46.04 86.84 38.68 16.58 16.18 38.16 26.8 60.41 26.81 45.45.01 81.95-36.42 82.03-81.87 0-3.14-.17-6.27-.51-9.38 22.11-4.71 41.23-18.28 52.8-37.48 17.52-30.42 11.98-69.22-13.63-95.5zM142.96 303.16c-17.85.03-35.02-6.41-48.36-18.13 1.91-1.02 4.17-2.28 5.93-3.32l65.36-37.75c3.35-1.91 5.4-5.44 5.38-9.27V148.8l27.64 15.96c.29.16.5.43.56.75v76.37c-.03 33.65-27.3 60.94-60.91 60.97l.4.31zm-121.8-55.7c-8.49-14.35-11.2-31.36-7.6-47.82 1.91 1.02 4.13 2.28 5.97 3.32l65.36 37.75c3.35 1.91 7.47 1.91 10.82 0l79.87-46.13v31.92c.02.32-.1.64-.32.86l-66.09 38.17c-29.27 16.92-66.63 6.92-83.87-22.35l-.14.28zm-15.9-130.04c8.52-14.3 22.02-24.93 37.94-29.86v77.81c-.02 3.83 2.01 7.38 5.34 9.31l79.84 46.1-27.64 15.96c-.27.18-.59.23-.9.13l-66.12-38.21c-29.27-16.88-39.36-54.23-22.5-83.44l.04 2.2zm209.21 48.69-79.84-46.1 27.64-15.96c.27-.18.59-.23.9-.13l66.12 38.21c29.26 16.91 39.36 54.23 22.5 83.44-8.52 14.3-22.02 24.93-37.94 29.86v-77.81c.02-3.86-2-7.43-5.38-9.31v-.2zm27.52-47.92c-1.91-1.02-4.13-2.28-5.97-3.32l-65.36-37.75c-3.35-1.91-7.47-1.91-10.82 0l-79.87 46.13v-31.92c-.02-.32.1-.64.32-.86l66.09-38.17c29.26-16.91 66.63-6.93 83.87 22.33 8.49 14.36 11.21 31.38 7.61 47.85l.13-.29zm-173.2 57.04-27.64-15.96c-.29-.16-.5-.43-.56-.75v-76.37c.03-33.67 27.37-60.97 61.03-60.94 17.82 0 34.93 6.46 48.27 18.17-1.91 1.02-4.17 2.28-5.93 3.32l-65.36 37.75c-3.35 1.91-5.4 5.44-5.38 9.27l-.43 85.51zm15.04-37.53 35.56-20.54 35.56 20.54v41.08l-35.56 20.54-35.56-20.54v-41.08z"/>
</svg>
