<svg xmlns="http://www.w3.org/2000/svg" viewBox="0 0 256 256">
  <ellipse cx="128" cy="48" rx="104" ry="40" fill="#336791"/>
  <path fill="#336791" d="M24 48v160c0 22.091 46.562 40 104 40s104-17.909 104-40V48c0 22.091-46.562 40-104 40S24 70.091 24 48z"/>
  <ellipse cx="128" cy="48" rx="104" ry="40" fill="#336791"/>
  <path fill="#4B9CD3" d="M128 96c-57.438 0-104-17.909-104-40v56c0 22.091 46.562 40 104 40s104-17.909 104-40V56c0 22.091-46.562 40-104 40z" opacity="0.5"/>
  <path fill="#4B9CD3" d="M128 160c-57.438 0-104-17.909-104-40v56c0 22.091 46.562 40 104 40s104-17.909 104-40v-56c0 22.091-46.562 40-104 40z" opacity="0.3"/>
</svg>
